<mxfile host="app.diagrams.net" agent="Mozilla/5.0 (Macintosh; Intel Mac OS X 10_15_7) AppleWebKit/537.36 (KHTML, like Gecko) Chrome/131.0.0.0 Safari/537.36" version="25.0.1">
  <diagram name="Page-1" id="oVn04cqjI4I9JJedJ097">
    <mxGraphModel dx="1434" dy="785" grid="1" gridSize="10" guides="1" tooltips="1" connect="1" arrows="1" fold="1" page="1" pageScale="1" pageWidth="850" pageHeight="1100" math="0" shadow="0">
      <root>
        <mxCell id="0" />
        <mxCell id="1" parent="0" />
        <mxCell id="-5lLzuhtgs18jf8ZroVW-4" style="edgeStyle=orthogonalEdgeStyle;rounded=1;orthogonalLoop=1;jettySize=auto;html=1;exitX=1;exitY=0.25;exitDx=0;exitDy=0;entryX=0;entryY=0.25;entryDx=0;entryDy=0;curved=0;" edge="1" parent="1" source="-5lLzuhtgs18jf8ZroVW-1" target="-5lLzuhtgs18jf8ZroVW-2">
          <mxGeometry relative="1" as="geometry" />
        </mxCell>
        <mxCell id="-5lLzuhtgs18jf8ZroVW-6" value="&amp;nbsp;Customer Input / Data&amp;nbsp;" style="edgeLabel;html=1;align=center;verticalAlign=middle;resizable=0;points=[];labelBorderColor=default;" vertex="1" connectable="0" parent="-5lLzuhtgs18jf8ZroVW-4">
          <mxGeometry x="-0.4143" relative="1" as="geometry">
            <mxPoint x="39" as="offset" />
          </mxGeometry>
        </mxCell>
        <mxCell id="-5lLzuhtgs18jf8ZroVW-1" value="IO Module" style="rounded=0;whiteSpace=wrap;html=1;" vertex="1" parent="1">
          <mxGeometry x="50" y="220" width="70" height="100" as="geometry" />
        </mxCell>
        <mxCell id="-5lLzuhtgs18jf8ZroVW-5" style="edgeStyle=orthogonalEdgeStyle;rounded=1;orthogonalLoop=1;jettySize=auto;html=1;exitX=1;exitY=0.25;exitDx=0;exitDy=0;entryX=0;entryY=0.25;entryDx=0;entryDy=0;curved=0;" edge="1" parent="1" source="-5lLzuhtgs18jf8ZroVW-2" target="-5lLzuhtgs18jf8ZroVW-3">
          <mxGeometry relative="1" as="geometry" />
        </mxCell>
        <mxCell id="-5lLzuhtgs18jf8ZroVW-7" value="&amp;nbsp;Generated Prompt&amp;nbsp;" style="edgeLabel;html=1;align=center;verticalAlign=middle;resizable=0;points=[];labelBorderColor=default;" vertex="1" connectable="0" parent="-5lLzuhtgs18jf8ZroVW-5">
          <mxGeometry x="-0.3846" y="-4" relative="1" as="geometry">
            <mxPoint x="20" y="-5" as="offset" />
          </mxGeometry>
        </mxCell>
        <mxCell id="-5lLzuhtgs18jf8ZroVW-2" value="Prompt Generator" style="rounded=0;whiteSpace=wrap;html=1;" vertex="1" parent="1">
          <mxGeometry x="330" y="220" width="70" height="100" as="geometry" />
        </mxCell>
        <mxCell id="-5lLzuhtgs18jf8ZroVW-3" value="Context Builder" style="rounded=0;whiteSpace=wrap;html=1;" vertex="1" parent="1">
          <mxGeometry x="530" y="220" width="70" height="100" as="geometry" />
        </mxCell>
      </root>
    </mxGraphModel>
  </diagram>
</mxfile>
